<?xml version="1.0" standalone="no"?>
<!DOCTYPE svg PUBLIC "-//W3C//DTD SVG 20010904//EN"
 "http://www.w3.org/TR/2001/REC-SVG-20010904/DTD/svg10.dtd">
<svg version="1.0" xmlns="http://www.w3.org/2000/svg"
 width="4500.000000pt" height="4500.000000pt" viewBox="0 0 4500.000000 4500.000000"
 preserveAspectRatio="xMidYMid meet">

<g transform="translate(0.000000,4500.000000) scale(0.100000,-0.100000)"
fill="#000000" stroke="none">
<path d="M21440 39043 c-1157 -12 -2435 -121 -3640 -309 -905 -141 -1545 -316
-2767 -755 -1066 -383 -1642 -643 -2318 -1047 -292 -174 -902 -602 -1390 -976
-250 -191 -279 -218 -329 -312 -49 -89 -153 -348 -153 -379 0 -11 -37 -140
-81 -288 -45 -147 -82 -274 -82 -281 0 -11 -17 -13 -82 -9 -69 4 -98 0 -173
-21 -175 -51 -509 -234 -740 -406 -218 -162 -615 -543 -861 -825 -318 -366
-724 -895 -940 -1226 -37 -57 -101 -156 -142 -219 -405 -621 -659 -1103 -1089
-2070 -292 -655 -482 -1229 -604 -1830 -121 -597 -201 -1323 -245 -2245 -15
-301 -15 -394 -5 -668 8 -228 17 -349 31 -430 25 -137 81 -475 110 -657 21
-133 66 -354 116 -580 53 -232 95 -337 289 -710 41 -80 75 -153 75 -163 0 -11
6 -31 14 -45 17 -32 51 -144 67 -222 20 -96 2 -624 -37 -1085 -24 -281 -11
-710 41 -1290 7 -88 17 -221 20 -295 6 -127 82 -716 126 -972 l19 -118 -113
-227 c-319 -643 -791 -2042 -942 -2796 -67 -335 -79 -457 -80 -802 0 -291 1
-316 23 -399 54 -213 139 -375 254 -480 121 -113 370 -222 629 -277 241 -51
648 -15 914 81 44 16 168 60 275 98 217 76 306 118 395 186 33 24 63 42 66 38
9 -10 144 -299 230 -492 41 -91 94 -196 120 -235 25 -38 63 -97 85 -130 21
-33 41 -64 43 -70 36 -96 174 -348 318 -580 255 -411 299 -477 463 -680 31
-38 78 -101 105 -140 114 -163 405 -548 484 -640 134 -157 392 -411 556 -546
83 -68 240 -200 350 -294 394 -335 668 -534 939 -682 56 -30 121 -74 146 -97
56 -52 149 -107 305 -180 66 -30 179 -86 250 -124 72 -38 245 -130 385 -204
140 -75 323 -166 405 -203 83 -37 234 -107 338 -156 217 -104 367 -167 522
-219 61 -21 261 -94 445 -163 561 -209 715 -260 1247 -411 542 -153 599 -165
1513 -310 649 -103 1127 -156 1690 -187 420 -23 1253 2 2015 61 72 5 209 14
305 20 390 24 721 59 1030 110 855 141 1648 369 3085 885 149 53 403 143 565
200 737 258 1182 442 1361 562 76 51 225 132 669 363 140 73 291 158 335 189
169 121 396 270 535 353 169 100 341 219 457 315 148 123 764 679 1153 1041
287 268 476 486 672 777 56 83 136 186 178 230 119 123 366 410 441 511 111
150 303 447 378 589 18 33 38 63 46 67 21 12 666 45 1410 73 470 17 669 27
1090 55 461 30 855 49 1255 60 201 6 451 15 555 22 105 6 303 12 440 13 209 1
255 4 281 18 36 18 84 72 84 92 0 8 18 35 40 60 47 55 76 109 155 295 93 218
112 274 176 500 212 755 291 1020 399 1340 32 96 82 251 110 344 114 378 330
1311 414 1781 l53 300 339 0 c186 0 590 -4 896 -9 l558 -9 87 39 c49 21 98 47
110 57 32 29 46 79 41 155 -3 58 -15 93 -92 262 -48 107 -100 220 -116 250
-71 139 -122 233 -180 334 -34 60 -71 134 -81 165 -25 73 -47 113 -139 251
-114 172 -210 331 -322 539 -169 311 -316 540 -986 1536 -231 342 -272 395
-457 580 -147 148 -247 225 -330 258 -101 39 -246 19 -344 -48 -54 -37 -171
-179 -236 -285 -93 -155 -378 -816 -673 -1565 -50 -126 -186 -469 -301 -761
-369 -932 -442 -1147 -562 -1641 l-41 -172 -79 72 c-95 86 -475 487 -675 712
-239 269 -544 637 -544 657 0 6 37 50 83 97 219 230 354 413 486 657 275 508
627 1485 800 2219 95 406 140 644 205 1095 69 474 87 662 96 1005 7 292 0 667
-14 740 -10 51 -36 446 -31 456 3 5 -4 39 -16 76 -26 82 -28 215 -7 458 31
377 7 814 -77 1400 -19 132 -41 294 -50 360 -9 66 -32 197 -50 290 -19 94 -39
208 -44 255 -22 172 -34 231 -106 540 -60 253 -89 356 -151 525 -41 116 -95
267 -119 336 -24 69 -70 193 -103 275 -33 82 -90 230 -127 329 -81 218 -191
447 -275 575 -35 52 -145 230 -245 395 -216 357 -235 387 -329 518 -212 296
-278 374 -541 639 -165 167 -907 783 -1135 943 -47 33 -130 92 -184 133 -55
40 -125 86 -156 102 l-57 29 -41 118 c-72 206 -159 518 -242 863 -10 41 -24
119 -33 172 -18 119 -47 181 -100 217 -21 14 -60 46 -86 70 -53 51 -308 259
-429 350 -467 353 -1579 1002 -2427 1416 -513 251 -874 394 -1450 573 -529
166 -907 268 -1505 406 -606 140 -959 206 -1625 305 -1110 165 -1979 225
-3065 214z m-1711 -804 c16 -45 14 -75 -8 -117 -25 -49 -37 -58 -169 -130
-110 -60 -210 -130 -397 -277 -49 -38 -119 -90 -155 -115 -36 -24 -101 -72
-145 -106 -116 -89 -200 -141 -239 -148 -66 -12 -152 47 -113 77 252 196 561
423 789 580 126 86 408 267 418 267 5 0 13 -14 19 -31z m-1966 -175 c-357
-282 -840 -690 -1252 -1059 -123 -110 -229 -203 -236 -207 -6 -4 -108 -23
-226 -43 -118 -20 -299 -54 -403 -76 -104 -21 -190 -38 -192 -37 -2 3 272 239
565 489 387 328 1076 850 1219 923 30 15 584 121 655 125 10 1 -49 -51 -130
-115z m380 -31 c-10 -77 -52 -240 -82 -320 -70 -189 -145 -308 -275 -438 -141
-140 -272 -208 -554 -289 -180 -52 -543 -130 -541 -117 1 13 668 582 979 835
165 135 465 366 474 366 3 0 2 -17 -1 -37z m-1563 -128 c0 -18 -11 -32 -42
-52 -180 -116 -1104 -886 -1456 -1215 l-133 -124 -97 -23 c-348 -82 -679 -203
-1177 -431 -114 -52 -423 -208 -510 -258 -118 -68 -308 -190 -402 -258 -45
-32 -144 -92 -220 -132 -176 -92 -249 -147 -400 -298 -131 -132 -229 -267
-349 -482 -53 -94 -85 -136 -163 -217 -95 -98 -178 -225 -197 -302 -4 -15 -36
-91 -71 -167 -35 -76 -62 -144 -60 -150 2 -6 -37 -110 -87 -231 -90 -216 -93
-221 -139 -252 -25 -17 -51 -33 -57 -35 -5 -1 -30 -73 -54 -158 -90 -316 -115
-375 -229 -548 -57 -86 -116 -179 -132 -207 -15 -27 -63 -102 -105 -165 -99
-149 -178 -284 -240 -411 -37 -76 -50 -95 -50 -74 0 29 6 51 95 350 92 306
231 818 295 1085 34 140 81 336 105 435 24 99 67 263 95 365 29 102 65 235 82
295 70 261 163 546 223 690 21 50 59 145 86 213 70 181 154 285 349 432 47 35
171 132 275 215 344 274 430 328 940 595 699 366 855 443 1464 727 631 293
1254 518 1936 699 154 40 309 82 345 93 83 25 80 25 80 -4z m2760 -4330 c656
-42 936 -74 1340 -155 439 -88 789 -196 2035 -627 270 -94 528 -183 575 -198
171 -56 506 -178 555 -202 152 -77 533 -319 760 -483 631 -458 1471 -1249
2166 -2040 136 -154 285 -351 416 -548 127 -192 154 -223 229 -268 17 -10 16
-22 -24 -240 -116 -640 -133 -882 -148 -2104 -10 -795 16 -1203 126 -2005 90
-652 285 -1611 430 -2109 19 -66 19 -72 4 -125 -32 -109 -13 -282 92 -826 52
-269 142 -536 350 -1033 208 -498 280 -638 535 -1047 167 -267 430 -627 655
-894 41 -49 74 -98 74 -110 0 -49 -118 -710 -193 -1081 l-82 -405 -62 -30
c-34 -16 -81 -48 -106 -70 -24 -22 -101 -71 -171 -110 -69 -38 -126 -73 -126
-77 0 -9 17 -14 150 -38 140 -26 180 -36 202 -53 15 -12 10 -39 -68 -343 -145
-565 -206 -750 -320 -977 -122 -243 -271 -457 -470 -675 l-49 -53 -155 78
c-173 88 -284 158 -434 271 -282 212 -483 400 -603 562 -38 52 -158 226 -266
385 -108 160 -246 353 -308 429 -61 77 -192 261 -291 410 -175 263 -227 333
-352 481 l-60 70 140 12 c305 26 419 41 475 62 78 30 461 131 502 132 21 1 25
3 12 6 -75 19 -471 146 -520 166 -33 14 -98 31 -145 37 -47 6 -132 19 -190 30
-177 32 -575 98 -764 125 -320 47 -532 117 -544 179 -7 34 121 144 233 203
177 91 482 194 620 208 103 11 159 31 203 74 128 125 47 328 -157 388 -138 40
-438 8 -672 -72 -424 -147 -707 -394 -774 -676 -76 -322 108 -601 492 -745 81
-30 275 -78 391 -95 l82 -12 0 -86 c0 -99 31 -241 84 -384 30 -81 34 -103 34
-190 1 -54 3 -110 6 -125 3 -15 10 -73 16 -130 11 -114 51 -264 135 -504 30
-86 55 -165 55 -177 0 -49 -179 -974 -246 -1270 -66 -296 -142 -556 -294
-1011 -321 -966 -499 -1357 -903 -1986 -226 -352 -381 -546 -667 -834 -423
-427 -646 -632 -975 -894 -432 -346 -542 -424 -940 -663 -210 -127 -298 -173
-467 -249 -126 -56 -250 -76 -473 -76 -215 -1 -567 49 -660 92 -22 10 -69 26
-105 34 -369 84 -784 368 -984 671 -73 110 -91 144 -140 259 -115 268 -183
529 -337 1286 -27 135 -57 281 -67 325 -13 61 -17 130 -17 295 1 208 2 220 37
390 76 363 213 773 378 1130 333 721 391 884 464 1307 22 128 28 147 91 273
63 127 66 138 60 184 -14 106 -53 154 -180 217 -82 41 -86 42 -227 50 -79 4
-222 13 -318 19 -260 17 -1645 32 -1695 19 -56 -15 -140 -60 -210 -111 -60
-44 -61 -46 -192 -304 -72 -142 -165 -333 -205 -424 -76 -170 -164 -340 -176
-340 -31 0 -555 455 -807 700 -184 179 -295 270 -417 341 -88 52 -191 95 -248
104 -25 4 -77 20 -117 36 l-71 29 -734 6 c-817 6 -1034 0 -1068 -31 -33 -29
-49 -67 -56 -128 -10 -82 14 -147 86 -237 34 -41 90 -115 126 -165 36 -49 94
-126 130 -170 36 -44 110 -145 166 -225 99 -141 183 -245 389 -480 56 -63 162
-196 235 -295 74 -99 149 -196 168 -215 75 -78 654 -863 768 -1043 49 -76 132
-213 185 -305 53 -92 125 -216 161 -275 62 -104 66 -114 93 -250 16 -78 47
-252 69 -386 22 -135 54 -308 71 -385 30 -145 49 -259 69 -426 26 -217 53
-393 89 -576 l38 -193 107 -115 c114 -124 123 -146 57 -146 -132 0 -627 44
-855 76 -456 64 -1164 212 -1641 344 -338 93 -635 204 -890 330 -128 64 -197
107 -345 216 -102 74 -243 172 -314 217 -264 166 -584 452 -807 722 -41 50
-122 134 -181 188 -142 130 -242 238 -412 445 -352 431 -555 721 -771 1107
-43 77 -131 232 -195 345 -143 250 -156 276 -237 465 -79 184 -109 239 -233
430 -103 158 -147 238 -181 332 -12 32 -60 150 -106 262 -47 112 -104 259
-128 327 -24 67 -68 176 -98 241 -98 213 -149 354 -189 517 -21 89 -68 253
-103 366 -73 234 -97 323 -159 610 -25 113 -58 261 -75 330 -61 255 -118 536
-195 965 -131 727 -180 1077 -206 1447 -20 286 -66 687 -97 848 -13 71 -15
118 -8 300 4 118 9 458 10 755 3 540 3 540 34 770 17 127 44 376 61 555 16
179 39 402 49 495 11 94 27 235 36 315 37 326 160 880 311 1400 31 107 80 283
110 390 29 107 80 272 112 365 126 358 267 750 417 1155 48 129 107 294 132
365 99 287 287 713 602 1363 87 180 196 406 241 502 45 96 94 192 109 215 16
22 63 105 106 185 43 80 103 192 135 250 31 58 78 148 105 200 63 126 112 208
145 245 15 17 59 77 97 135 97 145 313 440 373 509 28 32 74 93 103 135 69
100 175 216 316 346 68 63 175 179 267 292 124 150 180 209 287 300 179 153
490 407 538 439 101 69 1068 473 1190 498 29 6 203 33 384 61 182 28 386 59
455 70 69 11 260 40 425 65 165 25 509 77 765 115 1111 169 1890 259 2765 320
456 32 1208 39 1585 15z m-9677 -292 c16 -37 22 -67 22 -128 0 -71 -4 -88 -32
-145 -18 -36 -69 -114 -115 -175 -79 -106 -218 -317 -493 -745 -119 -186 -400
-590 -410 -590 -11 0 211 519 318 741 115 242 339 632 469 821 72 104 201 268
211 268 4 0 18 -21 30 -47z m-518 -345 c-227 -365 -376 -652 -558 -1078 -58
-135 -128 -297 -157 -360 -28 -63 -87 -196 -130 -296 -74 -171 -273 -599 -401
-859 -50 -103 -229 -432 -266 -491 -12 -18 -14 -18 -38 11 -87 101 -175 266
-175 329 0 42 230 521 373 776 61 108 160 281 188 328 277 461 371 606 648
1002 124 178 230 322 325 440 113 141 268 330 271 330 2 0 -34 -60 -80 -132z
m-1740 -3043 c17 -27 55 -79 84 -115 28 -35 49 -70 46 -78 -8 -22 -196 -302
-202 -302 -4 0 -28 14 -54 31 -50 32 -100 97 -119 155 -13 38 2 78 117 323
l54 115 21 -40 c11 -21 35 -61 53 -89z m414 -157 c-22 -58 -34 -74 -42 -61 -5
8 50 113 59 113 2 0 -6 -24 -17 -52z m-149 -241 c-33 -32 -40 -36 -27 -14 44
71 50 78 61 67 7 -7 -2 -23 -34 -53z m21712 -1060 c31 -15 81 -52 110 -81 83
-83 107 -136 178 -386 13 -43 19 -101 20 -170 0 -58 7 -141 15 -185 10 -53 15
-151 15 -291 0 -235 3 -224 -68 -224 -115 0 -613 -70 -890 -126 -95 -18 -178
-34 -184 -34 -15 0 -3 124 38 392 27 176 43 250 70 325 20 54 50 146 69 205
18 58 46 137 63 175 17 37 40 100 51 139 34 118 106 210 201 259 58 30 81 34
170 32 70 -2 95 -7 142 -30z m-22411 -154 c77 -84 101 -152 100 -288 0 -162
-74 -533 -128 -638 -57 -114 -163 -187 -283 -194 -36 -2 -71 0 -77 4 -10 7 -5
52 23 198 70 374 142 612 268 888 39 86 44 88 97 30z m22730 -1775 c-4 -477
15 -795 84 -1373 44 -365 92 -643 155 -905 74 -304 83 -393 55 -525 -47 -220
-217 -395 -430 -440 -128 -27 -257 -11 -370 45 -223 110 -336 322 -445 835
-48 226 -62 312 -100 594 -89 671 -121 1194 -105 1704 l7 238 25 10 c110 42
896 164 1078 168 l50 1 -4 -352z m558 -3943 c108 -26 187 -72 276 -160 129
-128 190 -256 202 -421 20 -276 -171 -538 -443 -609 -114 -30 -274 -17 -383
31 -219 97 -346 293 -358 554 -9 192 37 320 161 445 145 147 347 206 545 160z
m7691 -385 c18 -11 28 -118 29 -302 3 -461 -154 -1541 -315 -2163 -180 -701
-258 -1023 -289 -1200 -20 -110 -46 -246 -59 -302 -13 -57 -22 -103 -20 -103
2 0 15 23 29 50 14 28 28 50 31 50 9 0 4 -29 -107 -605 -130 -676 -161 -825
-171 -825 -4 0 -8 20 -8 44 0 67 -35 165 -82 228 -24 32 -62 93 -86 136 -24
43 -168 244 -320 446 -152 202 -286 383 -297 401 -12 19 -29 43 -39 54 -18 19
-17 23 28 143 25 68 62 184 81 258 83 311 109 400 176 597 83 245 176 489 367
968 77 193 201 505 276 695 74 190 149 379 166 420 18 41 69 168 116 283 46
114 119 287 161 385 42 97 89 206 104 242 15 36 37 71 48 78 35 24 155 38 181
22z m-31016 -4990 c21 -85 57 -245 82 -355 25 -110 67 -288 94 -395 l48 -195
-8 -140 c-14 -227 -66 -567 -99 -655 -65 -171 -334 -445 -526 -537 -136 -64
-315 -96 -425 -76 l-45 9 2 94 c2 99 41 327 107 625 64 287 86 364 158 568 39
111 104 306 144 432 40 127 114 352 164 500 51 149 117 344 148 435 l56 165
32 -160 c17 -88 48 -230 68 -315z m24045 -117 c-10 -38 -19 -71 -19 -75 0 -5
-4 -8 -10 -8 -17 0 -11 35 16 94 14 31 27 56 29 56 2 0 -5 -30 -16 -67z m6851
-605 c0 -20 -53 -198 -58 -193 -7 7 41 205 50 205 4 0 8 -5 8 -12z m-23972
-1358 c112 -6 267 -10 346 -10 l142 0 75 -72 c135 -130 348 -417 514 -693 263
-436 372 -601 464 -698 77 -80 214 -188 289 -226 42 -21 45 -21 105 -6 67 17
164 75 226 135 22 21 65 81 95 134 31 52 75 118 97 147 23 28 68 110 101 183
93 204 421 849 491 966 l63 105 85 0 c400 -1 1818 -41 1829 -51 3 -3 -25 -63
-61 -132 -37 -70 -109 -226 -160 -347 -90 -215 -722 -1492 -870 -1760 -39 -71
-127 -233 -194 -360 -118 -222 -216 -397 -237 -422 -41 -50 118 -955 262
-1493 65 -242 82 -354 83 -525 2 -213 -45 -356 -156 -480 -97 -109 -291 -219
-477 -270 -230 -64 -638 -33 -824 62 -161 81 -273 171 -405 323 -49 57 -58 74
-69 130 -7 36 -27 144 -46 240 -45 228 -70 364 -100 530 -14 74 -34 177 -45
228 -12 51 -32 170 -46 265 -29 211 -67 404 -99 517 -14 47 -30 123 -36 170
-13 104 -62 236 -100 270 -15 14 -101 142 -190 285 -244 389 -336 521 -546
780 -230 284 -289 359 -346 439 -35 49 -104 144 -153 210 -50 67 -111 150
-137 186 -25 36 -85 110 -133 164 -48 55 -111 133 -140 175 -30 42 -106 135
-170 206 -64 72 -194 234 -290 360 -95 127 -190 251 -210 278 -21 26 -35 50
-31 54 7 7 669 21 751 16 28 -2 141 -8 253 -13z"/>
<path d="M21250 31153 c-14 -2 -29 -10 -35 -17 -7 -8 -43 -12 -105 -12 -245
-1 -607 -136 -898 -335 -68 -46 -166 -107 -219 -135 -250 -132 -384 -273 -601
-633 -211 -349 -374 -740 -503 -1201 -22 -80 -80 -287 -129 -460 -94 -335
-120 -450 -146 -650 -10 -79 -30 -169 -54 -245 -21 -66 -47 -163 -58 -215 -46
-219 -47 -239 -47 -1010 0 -757 3 -822 44 -1145 11 -82 25 -224 30 -315 14
-208 72 -464 179 -785 57 -172 255 -544 315 -594 15 -12 17 -10 17 20 0 62
-42 184 -120 349 -90 190 -123 283 -196 555 -3 11 21 -20 53 -70 83 -126 163
-214 375 -413 208 -193 250 -229 329 -271 42 -23 62 -43 89 -88 19 -32 44 -62
55 -67 11 -5 38 -34 59 -64 l40 -56 -38 22 c-21 13 -41 20 -44 17 -6 -6 188
-201 253 -254 l40 -33 -115 5 c-164 8 -254 36 -430 137 -51 29 -70 26 -70 -10
0 -42 60 -98 154 -143 136 -67 294 -97 510 -97 99 0 116 -3 200 -34 50 -19
108 -37 129 -41 21 -4 41 -14 44 -22 3 -8 9 -10 12 -5 4 6 35 4 81 -4 136 -24
275 -28 380 -10 113 20 301 81 396 129 38 19 100 43 138 52 248 62 605 279
1221 741 143 107 404 396 528 584 143 217 279 586 357 963 31 152 59 401 75
652 l14 230 51 160 c171 539 261 1147 247 1670 -21 727 -150 1364 -365 1791
-109 217 -233 400 -328 481 -43 37 -68 72 -111 151 -30 57 -65 115 -77 130
-12 15 -29 38 -38 52 -8 14 -57 70 -107 124 -50 55 -91 103 -91 108 0 4 -7 8
-15 8 -35 0 -14 -50 55 -130 71 -83 111 -144 173 -263 61 -116 65 -127 42
-127 -8 0 -30 -16 -49 -35 l-35 -35 -41 79 c-66 127 -130 214 -213 290 -143
132 -240 180 -585 290 -255 82 -370 107 -571 125 -123 12 -154 18 -196 40
l-50 27 55 -6 c30 -3 120 -10 200 -15 288 -19 673 -90 889 -164 41 -15 90 -26
109 -26 l35 0 -19 21 c-27 31 -91 56 -239 94 -296 76 -568 120 -815 130 -74 3
-148 7 -165 9 -16 2 -41 1 -55 -1z m387 -279 c12 -3 19 -12 17 -18 -7 -18 13
-30 71 -44 27 -7 67 -21 90 -32 l40 -18 -141 -1 c-78 -1 -163 -4 -190 -7 -54
-7 -55 4 -2 15 36 8 49 35 21 45 -10 4 -65 7 -121 7 -89 -1 -107 2 -129 19
l-25 19 24 5 c57 13 307 20 345 10z m-905 -69 c-173 -93 -389 -261 -543 -423
-57 -60 -133 -129 -169 -152 -36 -24 -83 -57 -105 -74 l-40 -31 19 30 c99 154
287 352 436 457 111 78 249 153 375 202 120 47 127 45 27 -9z m1259 19 c53
-16 213 -93 206 -100 -8 -8 -134 19 -157 34 -14 9 -49 31 -79 49 -61 36 -52
41 30 17z m-544 -70 c-3 -3 -12 -4 -19 -1 -8 3 -5 6 6 6 11 1 17 -2 13 -5z
m943 -199 c23 -9 28 -14 15 -14 -11 0 -31 6 -45 14 -31 18 -16 18 30 0z
m-2385 -87 c-156 -170 -287 -387 -355 -588 -18 -52 -83 -219 -145 -371 -235
-570 -473 -1207 -536 -1432 -88 -316 -90 -316 -34 3 31 174 49 240 115 435
101 298 136 383 227 539 70 121 99 196 75 196 -6 0 -36 -28 -67 -62 l-57 -63
25 65 c122 322 315 725 432 900 102 153 211 288 308 383 44 42 82 77 84 77 3
0 -30 -37 -72 -82z m2550 -29 c54 -55 63 -68 39 -56 -17 9 -39 29 -49 44 -10
15 -29 40 -43 56 -53 56 -14 24 53 -44z m-494 -8 c100 -34 152 -67 195 -123
46 -60 206 -352 229 -419 19 -52 19 -52 -75 76 -97 131 -279 313 -408 409
l-103 76 54 0 c30 0 78 -8 108 -19z m-136 -123 c61 -46 142 -113 180 -151 l70
-68 -74 47 c-41 26 -149 83 -240 127 l-165 79 54 23 c30 13 57 24 60 24 3 1
55 -36 115 -81z m605 -28 c11 -22 19 -40 17 -40 -1 0 -29 27 -62 61 l-60 61
42 -21 c29 -14 49 -34 63 -61z m-735 -92 c181 -93 257 -138 360 -214 136 -102
279 -238 357 -342 40 -53 47 -70 57 -139 27 -191 33 -320 34 -858 2 -540 1
-581 -22 -780 -24 -213 -24 -332 -1 -375 37 -69 84 123 122 495 13 129 16
1032 4 1240 l-5 90 37 -135 37 -135 -1 -360 c-2 -382 -18 -1014 -34 -1305 -12
-221 -34 -431 -70 -682 -28 -190 -32 -207 -136 -520 -156 -471 -468 -1242
-643 -1588 -75 -149 -81 -157 -152 -217 -41 -34 -77 -62 -81 -62 -4 -1 13 36
38 82 155 281 310 633 496 1127 137 363 214 622 258 875 12 66 32 170 45 230
51 235 54 365 9 382 -23 9 -29 -7 -49 -123 -9 -58 -28 -153 -41 -212 -14 -59
-43 -189 -64 -288 -55 -256 -117 -468 -211 -720 -121 -327 -264 -682 -334
-834 -69 -147 -199 -397 -191 -365 3 11 12 45 20 75 22 81 78 351 73 356 -6 6
-102 -213 -147 -336 -91 -252 -173 -387 -300 -494 -127 -108 -325 -208 -490
-248 -87 -21 -89 -21 -129 -3 -40 17 -107 83 -185 179 -21 26 -80 79 -132 117
-51 38 -100 79 -109 92 -30 46 -86 199 -110 300 -36 152 -62 431 -85 922 -6
121 -15 294 -20 385 -14 234 -12 412 5 676 69 1040 227 1917 468 2589 97 270
153 408 218 536 66 129 218 366 334 519 75 98 76 99 143 120 65 20 275 65 337
72 39 5 25 11 290 -124z m930 3 c29 -22 75 -70 103 -108 46 -60 54 -80 77
-175 31 -133 70 -361 85 -492 14 -127 41 -499 36 -503 -6 -6 -25 109 -31 187
-15 189 -63 406 -142 640 -45 135 -151 408 -179 462 -19 37 -11 35 51 -11z
m-135 -247 c21 -49 26 -71 9 -41 -16 27 -40 87 -35 87 3 0 14 -21 26 -46z
m-2796 -95 c-35 -51 -55 -64 -28 -18 41 68 49 79 52 69 2 -6 -8 -29 -24 -51z
m-429 -101 c-100 -210 -224 -512 -311 -763 -40 -115 -73 -205 -73 -198 -1 22
120 395 165 511 78 196 272 602 289 602 2 0 -29 -69 -70 -152z m3265 97 c0 -5
-5 -3 -10 5 -5 8 -10 20 -10 25 0 6 5 3 10 -5 5 -8 10 -19 10 -25z m430 -1575
c6 -201 10 -387 8 -415 -3 -28 -5 -4 -6 55 -1 58 -6 166 -12 240 -21 300 -31
574 -24 608 7 33 9 29 15 -43 4 -44 12 -244 19 -445z m-4093 448 c-3 -8 -6 -5
-6 6 -1 11 2 17 5 13 3 -3 4 -12 1 -19z m4236 -718 c0 -168 -5 -341 -10 -385
-8 -63 -11 4 -12 326 0 224 -3 422 -6 440 -3 20 2 12 12 -21 14 -46 17 -104
16 -360z m-4358 253 c-17 -79 -64 -217 -71 -210 -2 2 14 64 36 137 22 73 40
140 40 148 0 9 3 13 6 9 3 -3 -2 -41 -11 -84z m301 -9 c-94 -298 -211 -770
-265 -1065 -81 -442 -97 -637 -80 -969 11 -220 10 -266 -5 -440 -10 -107 -21
-210 -25 -229 -7 -34 -7 -33 -45 57 l-39 93 7 142 c14 291 57 778 86 982 37
257 107 576 201 915 77 279 178 605 185 597 2 -2 -7 -40 -20 -83z m3723 -613
c-5 -102 -12 -187 -15 -190 -4 -3 -4 53 0 124 3 72 7 200 8 285 1 150 1 152 8
60 4 -52 3 -178 -1 -279z m-4129 -82 c-5 -57 -9 -124 -10 -149 l0 -45 26 40
c15 22 30 44 34 48 4 5 -12 -77 -35 -180 -23 -104 -48 -225 -55 -270 -11 -68
-15 -79 -27 -67 -35 34 -57 -8 -89 -171 l-24 -120 4 195 c3 107 10 228 17 268
11 68 13 72 29 57 22 -20 37 -19 44 3 3 9 10 87 16 172 9 130 16 169 42 243
17 48 32 86 34 84 2 -2 -1 -50 -6 -108z m4316 -106 c-18 -432 -82 -905 -152
-1119 -30 -92 -165 -412 -269 -635 -127 -273 -125 -251 6 83 111 283 145 386
219 665 84 319 126 508 149 668 22 153 41 365 41 451 0 29 3 54 6 54 4 0 4
-75 0 -167z m-4331 -1998 l34 -75 -9 -161 c-4 -88 -10 -163 -13 -165 -2 -3 -7
17 -10 43 -3 27 -13 102 -21 168 -20 164 -28 265 -21 265 3 0 21 -34 40 -75z
m144 -107 c0 -41 -3 -56 -8 -43 -7 19 -3 105 5 105 2 0 4 -28 3 -62z m21 -400
c6 -62 13 -120 16 -128 3 -8 9 -74 14 -146 14 -212 55 -329 167 -477 32 -42
83 -116 113 -164 30 -48 102 -136 159 -195 57 -60 101 -112 98 -115 -16 -15
-154 125 -279 282 -146 184 -285 452 -358 694 l-23 74 17 166 c10 91 20 177
23 191 10 48 42 -62 53 -182z m-206 -146 c28 -107 99 -319 122 -365 9 -16 14
-31 11 -33 -7 -8 -84 158 -111 241 -32 98 -72 287 -80 375 -5 62 -5 61 14 -28
10 -51 30 -136 44 -190z m3482 51 c-26 -50 -55 -93 -56 -81 0 12 33 81 53 111
29 43 31 25 3 -30z m-660 -888 c-16 -25 -126 -119 -209 -179 l-42 -31 29 40
c46 64 106 124 171 171 60 45 81 44 51 -1z m-196 11 c0 -2 -8 -10 -17 -17 -16
-13 -17 -12 -4 4 13 16 21 21 21 13z m-129 -195 c-16 -29 -81 -115 -98 -128
-13 -10 -19 -6 -34 25 -11 20 -19 37 -19 39 0 2 151 81 158 83 1 0 -2 -9 -7
-19z m-1384 -354 c33 -23 60 -44 58 -46 -2 -2 -27 2 -54 9 -48 11 -64 24 -96
79 -13 22 20 7 92 -42z m278 -56 c33 -7 105 -23 160 -37 55 -14 138 -28 185
-32 l85 -6 -65 -13 c-65 -12 -403 -17 -345 -4 l30 6 -35 25 c-19 14 -42 32
-51 40 -9 8 -24 21 -35 28 -12 8 -13 11 -4 9 9 -3 42 -10 75 -16z m-235 -46
c0 -7 10 -24 21 -39 31 -39 15 -44 -18 -6 -53 63 -55 68 -28 62 14 -2 25 -10
25 -17z m152 -20 l53 -25 -38 0 c-40 0 -100 21 -111 39 -13 20 40 12 96 -14z
m228 -125 c130 -7 291 -1 400 16 112 17 -172 -74 -331 -106 -127 -26 -139 -26
-105 1 14 11 24 24 21 29 -2 4 -42 10 -87 12 -64 4 -95 11 -135 31 -29 15 -53
30 -53 34 0 3 33 3 73 -1 39 -4 137 -11 217 -16z m675 -41 c9 -52 63 -114 113
-129 20 -6 44 -14 52 -17 9 -3 -7 -13 -40 -24 -209 -74 -412 -79 -675 -17
l-90 21 130 33 c146 36 327 97 425 143 36 16 68 30 72 30 3 1 9 -18 13 -40z"/>
<path d="M12855 30349 c-292 -24 -467 -58 -665 -129 -150 -53 -223 -90 -235
-117 -5 -12 -52 -48 -103 -80 -320 -197 -586 -496 -869 -973 -104 -176 -371
-673 -441 -820 -134 -284 -233 -615 -297 -992 -78 -464 -119 -1130 -64 -1047
13 19 5 -25 -42 -241 -88 -405 -112 -593 -113 -870 0 -259 17 -399 79 -644
100 -395 200 -588 429 -824 207 -214 597 -495 872 -627 163 -78 227 -96 376
-102 l128 -6 37 -45 c46 -56 120 -90 222 -102 75 -8 433 2 501 15 19 4 71 13
115 21 44 8 112 22 150 31 70 16 365 126 488 181 119 54 409 224 511 300 111
83 280 247 397 387 268 320 558 785 648 1039 124 352 154 650 155 1576 l1 585
-28 200 c-33 233 -46 446 -39 635 5 149 -10 417 -33 597 -38 291 -185 750
-305 950 -114 190 -182 285 -301 423 -94 109 -139 154 -193 188 -39 25 -98 67
-131 93 -33 25 -82 61 -110 78 -67 42 -224 173 -224 188 -1 20 -57 52 -117 67
-91 23 -435 64 -574 69 -69 3 -170 1 -225 -4z m485 -80 c348 -43 336 -38 485
-179 44 -41 113 -100 153 -129 73 -53 73 -55 50 -67 -38 -22 -55 -16 -120 37
-109 88 -302 195 -451 250 -137 51 -241 72 -352 72 -117 0 -173 -13 -218 -52
l-32 -29 -18 24 c-18 24 -87 48 -172 60 l-50 7 60 9 c210 29 403 28 665 -3z
m-645 -118 c22 -5 32 -9 23 -10 -10 0 -62 -15 -115 -32 -244 -78 -743 -330
-956 -483 -43 -31 -80 -56 -83 -56 -11 0 65 98 134 171 130 139 287 242 492
323 206 81 384 112 505 87z m594 -23 c164 -44 367 -146 522 -259 82 -60 92
-73 84 -99 -9 -29 -67 -27 -108 4 -18 13 -60 38 -93 55 -40 19 -69 42 -82 63
-54 87 -214 205 -288 213 -21 3 -75 16 -119 30 -63 20 -70 24 -35 19 25 -3 78
-15 119 -26z m-154 -93 c28 -8 36 -13 19 -11 -26 4 -120 16 -234 30 -19 2 10
3 65 1 55 -3 123 -11 150 -20z m-80 -105 c157 -23 485 -115 501 -142 5 -8 1
-9 -12 -3 -49 21 -194 59 -349 92 -223 47 -359 48 -605 5 -91 -16 -166 -28
-168 -27 -10 8 126 78 166 85 60 12 363 5 467 -10z m-1476 -527 c-140 -142
-256 -279 -348 -411 -83 -117 -62 -74 81 170 51 88 83 131 131 173 57 51 266
214 276 215 3 0 -61 -66 -140 -147z m2244 -152 c13 -13 64 -199 86 -316 71
-368 119 -1252 92 -1670 -13 -190 -8 -319 13 -312 23 7 69 130 86 228 34 204
32 658 -5 1049 -19 196 -18 213 5 120 62 -244 107 -538 111 -720 1 -41 -5
-111 -14 -155 -33 -162 -20 -253 20 -153 l18 43 7 -50 c3 -27 10 -128 14 -222
6 -150 5 -175 -9 -190 -18 -22 -50 -136 -116 -423 -49 -211 -154 -581 -186
-650 -18 -41 -19 -49 15 131 11 58 34 191 50 295 16 104 37 225 45 269 18 103
19 140 0 155 -23 19 -62 -12 -74 -57 -24 -92 -43 -188 -81 -402 -22 -127 -44
-249 -49 -273 -6 -24 -28 -142 -51 -263 -77 -414 -105 -502 -248 -788 -280
-557 -581 -962 -932 -1250 l-105 -86 -55 53 c-71 68 -115 101 -225 166 -300
179 -410 269 -462 380 -43 89 -105 360 -170 735 -21 123 -24 445 -5 585 70
511 129 891 166 1062 13 62 47 219 75 348 27 129 77 375 111 545 65 337 133
631 175 765 31 98 96 232 166 341 90 140 280 300 467 393 90 45 386 146 546
187 134 34 162 46 226 98 36 29 56 37 105 43 72 7 176 1 188 -11z m228 -138
c38 -30 54 -52 78 -108 67 -158 78 -209 100 -450 12 -126 28 -291 36 -365 19
-178 18 -245 -2 -133 -8 46 -41 190 -75 320 -33 131 -89 349 -123 484 -34 135
-66 255 -69 267 -10 30 -2 28 55 -15z m-2934 -75 c-57 -101 -309 -603 -358
-713 -29 -66 -76 -185 -105 -265 -29 -80 -77 -211 -108 -291 -31 -81 -72 -209
-91 -285 -42 -165 -114 -406 -114 -383 -2 43 46 286 96 484 63 252 108 382
201 580 118 249 480 915 498 915 3 0 -6 -19 -19 -42z m33 -435 c-73 -165 -187
-496 -334 -970 -114 -368 -191 -704 -221 -968 -9 -77 -32 -232 -50 -345 -80
-485 -106 -728 -106 -1011 0 -195 13 -351 38 -459 3 -14 3 -23 0 -20 -11 11
-69 231 -89 340 -19 99 -22 151 -21 375 0 267 29 736 59 959 8 61 24 181 35
266 24 190 41 279 76 393 14 48 23 90 20 93 -4 4 -18 -1 -33 -11 l-26 -17 7
33 c13 59 226 701 267 804 45 113 120 258 216 419 57 95 66 106 73 88 15 -41
28 -30 95 81 20 31 37 57 39 57 2 0 -18 -48 -45 -107z m-783 -1935 c-3 -8 -6
-5 -6 6 -1 11 2 17 5 13 3 -3 4 -12 1 -19z m-10 -60 c-3 -8 -6 -5 -6 6 -1 11
2 17 5 13 3 -3 4 -12 1 -19z m-20 -130 c-3 -7 -5 -2 -5 12 0 14 2 19 5 13 2
-7 2 -19 0 -25z m-26 -284 c-17 -212 -40 -601 -41 -676 0 -14 -6 -16 -29 -12
-49 10 -56 -18 -32 -134 26 -128 93 -480 126 -662 34 -189 69 -334 110 -445
141 -386 370 -736 572 -873 64 -44 118 -88 218 -180 90 -83 -12 -23 -230 136
-376 274 -578 492 -681 733 -113 266 -187 603 -201 909 -11 254 14 474 106
937 27 136 60 312 72 390 13 78 25 141 26 139 2 -2 -5 -120 -16 -262z m295
-2031 c-10 -10 -117 302 -115 335 0 9 27 -61 60 -157 32 -96 57 -176 55 -178z
m2799 217 c-8 -24 -178 -255 -197 -266 -6 -4 8 19 32 52 23 32 70 101 103 152
58 89 76 107 62 62z m-2579 -408 c31 -44 37 -58 21 -47 -34 23 -76 80 -107
148 -45 99 -45 119 0 37 23 -41 62 -103 86 -138z m219 -324 c39 -25 104 -81
145 -123 41 -43 99 -93 128 -111 28 -19 52 -39 52 -43 0 -9 -53 5 -115 29 -31
12 -245 221 -285 279 -13 19 -17 30 -9 25 8 -5 46 -30 84 -56z m1881 -53 c-12
-47 -15 -50 -52 -57 -21 -4 -55 -7 -74 -7 -31 0 -33 2 -16 12 10 7 48 33 84
59 36 26 67 46 68 45 1 -1 -3 -24 -10 -52z m-1498 -159 c46 -24 98 -60 76 -54
-28 8 -134 64 -134 71 0 11 7 9 58 -17z m217 -237 c34 -1 36 -2 15 -8 -24 -7
-22 -10 37 -48 34 -22 107 -60 163 -83 100 -43 118 -62 66 -68 -18 -2 -73 21
-173 73 -132 69 -283 154 -283 160 0 1 30 -4 68 -11 37 -7 85 -14 107 -15z
m105 -24 c11 -13 8 -13 -21 -3 -44 15 -48 18 -17 18 14 0 31 -7 38 -15z"/>
<path d="M16074 20036 c-93 -43 -125 -82 -208 -251 -81 -167 -108 -212 -361
-620 -218 -350 -263 -426 -443 -748 -82 -148 -158 -281 -169 -295 l-21 -27
-28 21 c-57 41 -431 609 -752 1139 -164 272 -225 358 -327 462 -107 109 -151
132 -246 133 -106 0 -154 -30 -267 -170 -111 -137 -256 -351 -457 -670 -81
-129 -202 -316 -269 -415 -260 -383 -508 -748 -575 -845 -79 -115 -79 -118
-33 -223 49 -113 158 -176 285 -164 33 3 66 12 76 21 10 9 25 16 33 16 42 0
183 112 363 289 105 103 229 222 278 265 48 43 171 169 274 280 102 110 248
262 325 337 106 106 144 149 162 190 13 30 35 65 49 77 l25 24 15 -24 c8 -12
40 -66 70 -118 30 -52 85 -137 121 -187 36 -51 120 -186 187 -300 220 -377
353 -596 377 -624 31 -37 116 -78 178 -85 55 -7 133 6 192 32 25 11 68 17 132
18 85 1 101 4 147 30 88 49 327 280 528 511 38 44 142 152 230 240 161 161
330 357 438 508 32 45 62 83 66 85 5 1 24 -39 44 -90 40 -103 89 -215 240
-543 55 -121 126 -278 156 -350 31 -71 89 -185 128 -251 61 -103 80 -126 123
-154 61 -39 156 -70 216 -70 53 0 138 31 191 69 21 15 52 31 68 35 82 20 148
83 337 317 173 216 483 553 639 695 160 148 343 331 372 374 l16 25 20 -25
c11 -14 48 -72 83 -130 34 -58 81 -132 104 -165 23 -33 77 -118 120 -190 42
-71 119 -191 170 -265 50 -74 136 -211 189 -305 54 -93 127 -216 161 -271 l64
-101 80 -27 c48 -16 102 -26 136 -26 76 0 172 27 189 54 23 35 45 136 45 205
0 57 -5 73 -41 140 -57 104 -160 254 -270 391 -109 137 -177 238 -289 425
-171 287 -330 515 -500 718 -31 36 -106 139 -167 229 -62 90 -126 177 -143
195 -37 38 -156 87 -254 104 -95 16 -158 1 -233 -55 -85 -63 -100 -82 -231
-292 -66 -106 -153 -243 -194 -305 -41 -63 -100 -159 -133 -214 -32 -55 -109
-179 -170 -275 -118 -186 -333 -547 -353 -592 -25 -58 -72 -26 -102 69 -10 32
-35 88 -56 123 -21 35 -75 144 -120 241 -93 199 -107 226 -250 465 -56 94
-156 278 -222 410 -195 386 -225 427 -367 495 -74 35 -123 37 -191 5z"/>
</g>
</svg>
